<svg xmlns="http://www.w3.org/2000/svg" viewBox="0 0 32 32" width="32" height="32" shape-rendering="crispEdges">
  <!-- Blue triangle/pyramid -->
  <rect x="14" y="2" width="4" height="2" fill="#0000FF"/>
  <rect x="13" y="4" width="6" height="2" fill="#0000FF"/>
  <rect x="12" y="6" width="8" height="2" fill="#0000FF"/>
  <rect x="11" y="8" width="10" height="2" fill="#0000FF"/>
  <rect x="10" y="10" width="12" height="2" fill="#0000FF"/>
  <rect x="9" y="12" width="14" height="2" fill="#0000FF"/>
  <rect x="8" y="14" width="16" height="2" fill="#0000FF"/>
  <rect x="7" y="16" width="18" height="2" fill="#0000FF"/>
  <rect x="6" y="18" width="20" height="2" fill="#0000FF"/>
  <rect x="5" y="20" width="22" height="2" fill="#000080"/>
  <!-- Highlight on left edge -->
  <rect x="14" y="2" width="1" height="2" fill="#FFFFFF"/>
  <rect x="13" y="4" width="1" height="2" fill="#FFFFFF"/>
  <rect x="12" y="6" width="1" height="2" fill="#FFFFFF"/>
  <rect x="11" y="8" width="1" height="2" fill="#FFFFFF"/>
  <rect x="10" y="10" width="1" height="2" fill="#FFFFFF"/>
  <rect x="9" y="12" width="1" height="2" fill="#C0C0C0"/>
  <rect x="8" y="14" width="1" height="2" fill="#C0C0C0"/>
  <rect x="7" y="16" width="1" height="2" fill="#C0C0C0"/>
  <rect x="6" y="18" width="1" height="2" fill="#C0C0C0"/>
  <!-- Shadow on right edge -->
  <rect x="17" y="2" width="1" height="2" fill="#000080"/>
  <rect x="18" y="4" width="1" height="2" fill="#000080"/>
  <rect x="19" y="6" width="1" height="2" fill="#000080"/>
  <rect x="20" y="8" width="1" height="2" fill="#000080"/>
  <rect x="21" y="10" width="1" height="2" fill="#000080"/>
  <rect x="22" y="12" width="1" height="2" fill="#000080"/>
  <rect x="23" y="14" width="1" height="2" fill="#000080"/>
  <rect x="24" y="16" width="1" height="2" fill="#000080"/>
  <rect x="25" y="18" width="1" height="2" fill="#000080"/>
  <!-- Running man silhouette on pyramid (simplified) -->
  <rect x="15" y="8" width="2" height="2" fill="#FFFFFF"/>
  <rect x="14" y="10" width="4" height="2" fill="#FFFFFF"/>
  <rect x="15" y="12" width="2" height="2" fill="#FFFFFF"/>
  <rect x="13" y="14" width="2" height="2" fill="#FFFFFF"/>
  <rect x="17" y="14" width="2" height="2" fill="#FFFFFF"/>
  <rect x="12" y="16" width="2" height="2" fill="#FFFFFF"/>
  <rect x="18" y="16" width="2" height="2" fill="#FFFFFF"/>
  <!-- "AOL" text -->
  <rect x="6" y="24" width="2" height="6" fill="#0000FF"/>
  <rect x="8" y="24" width="2" height="2" fill="#0000FF"/>
  <rect x="10" y="24" width="2" height="6" fill="#0000FF"/>
  <rect x="8" y="27" width="2" height="1" fill="#0000FF"/>
  <rect x="14" y="24" width="2" height="6" fill="#0000FF"/>
  <rect x="16" y="24" width="2" height="2" fill="#0000FF"/>
  <rect x="16" y="28" width="2" height="2" fill="#0000FF"/>
  <rect x="18" y="24" width="2" height="6" fill="#0000FF"/>
  <rect x="22" y="24" width="2" height="6" fill="#0000FF"/>
  <rect x="24" y="28" width="4" height="2" fill="#0000FF"/>
</svg>