<svg xmlns="http://www.w3.org/2000/svg" width="32" height="32" viewBox="0 0 32 32" shape-rendering="crispEdges">
  <!-- Outer frame -->
  <rect x="2" y="2" width="28" height="28" fill="#C0C0C0"/>
  <rect x="2" y="2" width="28" height="1" fill="#FFFFFF"/>
  <rect x="2" y="2" width="1" height="28" fill="#FFFFFF"/>
  <rect x="29" y="2" width="1" height="28" fill="#808080"/>
  <rect x="2" y="29" width="28" height="1" fill="#808080"/>
  <!-- Grid background -->
  <rect x="4" y="4" width="24" height="24" fill="#000000"/>
  <!-- Fragmented blocks - row 1 -->
  <rect x="4" y="4" width="3" height="3" fill="#0000FF"/>
  <rect x="7" y="4" width="3" height="3" fill="#0000FF"/>
  <rect x="10" y="4" width="3" height="3" fill="#FF0000"/>
  <rect x="13" y="4" width="3" height="3" fill="#0000FF"/>
  <rect x="16" y="4" width="3" height="3" fill="#00FF00"/>
  <rect x="19" y="4" width="3" height="3" fill="#FF0000"/>
  <rect x="22" y="4" width="3" height="3" fill="#0000FF"/>
  <rect x="25" y="4" width="3" height="3" fill="#00FF00"/>
  <!-- Row 2 -->
  <rect x="4" y="7" width="3" height="3" fill="#00FF00"/>
  <rect x="7" y="7" width="3" height="3" fill="#FF0000"/>
  <rect x="10" y="7" width="3" height="3" fill="#0000FF"/>
  <rect x="13" y="7" width="3" height="3" fill="#00FF00"/>
  <rect x="16" y="7" width="3" height="3" fill="#0000FF"/>
  <rect x="19" y="7" width="3" height="3" fill="#0000FF"/>
  <rect x="22" y="7" width="3" height="3" fill="#FF0000"/>
  <rect x="25" y="7" width="3" height="3" fill="#00FF00"/>
  <!-- Row 3 -->
  <rect x="4" y="10" width="3" height="3" fill="#0000FF"/>
  <rect x="7" y="10" width="3" height="3" fill="#0000FF"/>
  <rect x="10" y="10" width="3" height="3" fill="#00FF00"/>
  <rect x="13" y="10" width="3" height="3" fill="#FF0000"/>
  <rect x="16" y="10" width="3" height="3" fill="#0000FF"/>
  <rect x="19" y="10" width="3" height="3" fill="#00FF00"/>
  <rect x="22" y="10" width="3" height="3" fill="#0000FF"/>
  <rect x="25" y="10" width="3" height="3" fill="#FF0000"/>
  <!-- Row 4 - partially defragged (blue grouped) -->
  <rect x="4" y="13" width="3" height="3" fill="#0000FF"/>
  <rect x="7" y="13" width="3" height="3" fill="#0000FF"/>
  <rect x="10" y="13" width="3" height="3" fill="#0000FF"/>
  <rect x="13" y="13" width="3" height="3" fill="#0000FF"/>
  <rect x="16" y="13" width="3" height="3" fill="#00FF00"/>
  <rect x="19" y="13" width="3" height="3" fill="#00FF00"/>
  <rect x="22" y="13" width="3" height="3" fill="#FF0000"/>
  <rect x="25" y="13" width="3" height="3" fill="#FF0000"/>
  <!-- Row 5 - defragged -->
  <rect x="4" y="16" width="3" height="3" fill="#0000FF"/>
  <rect x="7" y="16" width="3" height="3" fill="#0000FF"/>
  <rect x="10" y="16" width="3" height="3" fill="#0000FF"/>
  <rect x="13" y="16" width="3" height="3" fill="#0000FF"/>
  <rect x="16" y="16" width="3" height="3" fill="#0000FF"/>
  <rect x="19" y="16" width="3" height="3" fill="#00FF00"/>
  <rect x="22" y="16" width="3" height="3" fill="#00FF00"/>
  <rect x="25" y="16" width="3" height="3" fill="#00FF00"/>
  <!-- Row 6 - defragged -->
  <rect x="4" y="19" width="3" height="3" fill="#0000FF"/>
  <rect x="7" y="19" width="3" height="3" fill="#0000FF"/>
  <rect x="10" y="19" width="3" height="3" fill="#00FF00"/>
  <rect x="13" y="19" width="3" height="3" fill="#00FF00"/>
  <rect x="16" y="19" width="3" height="3" fill="#FF0000"/>
  <rect x="19" y="19" width="3" height="3" fill="#FF0000"/>
  <rect x="22" y="19" width="3" height="3" fill="#FF0000"/>
  <!-- Row 7 - empty -->
  <rect x="4" y="22" width="3" height="3" fill="#C0C0C0"/>
  <rect x="7" y="22" width="3" height="3" fill="#C0C0C0"/>
  <!-- Row 8 - empty -->
</svg>