<svg xmlns="http://www.w3.org/2000/svg" viewBox="0 0 16 16" width="16" height="16" shape-rendering="crispEdges">
  <!-- Monitor -->
  <rect x="1" y="1" width="14" height="10" fill="#C0C0C0"/>
  <rect x="1" y="1" width="14" height="1" fill="#FFFFFF"/>
  <rect x="1" y="1" width="1" height="10" fill="#FFFFFF"/>
  <rect x="14" y="1" width="1" height="10" fill="#808080"/>
  <rect x="1" y="10" width="14" height="1" fill="#808080"/>
  <!-- Screen with colors -->
  <rect x="3" y="3" width="10" height="6" fill="#008080"/>
  <rect x="3" y="3" width="3" height="6" fill="#FF0000"/>
  <rect x="6" y="3" width="2" height="6" fill="#00FF00"/>
  <rect x="8" y="3" width="3" height="6" fill="#0000FF"/>
  <rect x="11" y="3" width="2" height="6" fill="#FFFF00"/>
  <!-- Stand -->
  <rect x="6" y="11" width="4" height="1" fill="#C0C0C0"/>
  <rect x="5" y="12" width="6" height="1" fill="#808080"/>
  <!-- Color swatches -->
  <rect x="2" y="14" width="3" height="2" fill="#FF0000"/>
  <rect x="5" y="14" width="3" height="2" fill="#00FF00"/>
  <rect x="8" y="14" width="3" height="2" fill="#0000FF"/>
  <rect x="11" y="14" width="3" height="2" fill="#FFFF00"/>
</svg>