<svg xmlns="http://www.w3.org/2000/svg" viewBox="0 0 16 16" width="16" height="16" shape-rendering="crispEdges">
  <!-- Document page -->
  <rect x="2" y="1" width="12" height="14" fill="#FFFFFF"/>
  <rect x="2" y="1" width="12" height="1" fill="#C0C0C0"/>
  <rect x="2" y="1" width="1" height="14" fill="#C0C0C0"/>
  <rect x="13" y="1" width="1" height="14" fill="#808080"/>
  <rect x="2" y="14" width="12" height="1" fill="#808080"/>
  <!-- Grid lines -->
  <rect x="4" y="4" width="8" height="1" fill="#C0C0C0"/>
  <rect x="4" y="7" width="8" height="1" fill="#C0C0C0"/>
  <rect x="4" y="10" width="8" height="1" fill="#C0C0C0"/>
  <rect x="8" y="4" width="1" height="9" fill="#C0C0C0"/>
  <!-- Green "X" -->
  <rect x="4" y="3" width="2" height="1" fill="#00FF00"/>
  <rect x="5" y="4" width="2" height="1" fill="#00FF00"/>
  <rect x="6" y="5" width="2" height="1" fill="#00FF00"/>
  <rect x="7" y="6" width="2" height="1" fill="#00FF00"/>
  <rect x="8" y="7" width="2" height="1" fill="#00FF00"/>
  <rect x="9" y="8" width="2" height="1" fill="#00FF00"/>
  <!-- X cross -->
  <rect x="9" y="3" width="2" height="1" fill="#00FF00"/>
  <rect x="8" y="4" width="2" height="1" fill="#00FF00"/>
  <rect x="7" y="5" width="2" height="1" fill="#00FF00"/>
  <rect x="6" y="6" width="2" height="1" fill="#00FF00"/>
  <rect x="5" y="7" width="2" height="1" fill="#00FF00"/>
  <rect x="4" y="8" width="2" height="1" fill="#00FF00"/>
  <!-- Shadow -->
  <rect x="4" y="3" width="1" height="1" fill="#008080"/>
  <rect x="10" y="3" width="1" height="1" fill="#008080"/>
</svg>