<svg xmlns="http://www.w3.org/2000/svg" viewBox="0 0 32 32" width="32" height="32" shape-rendering="crispEdges">
  <!-- Document behind -->
  <rect x="4" y="4" width="16" height="22" fill="#FFFFFF"/>
  <rect x="4" y="4" width="16" height="1" fill="#C0C0C0"/>
  <rect x="4" y="4" width="1" height="22" fill="#C0C0C0"/>
  <rect x="19" y="4" width="1" height="22" fill="#808080"/>
  <rect x="4" y="25" width="16" height="1" fill="#808080"/>
  <!-- Corner fold -->
  <rect x="16" y="4" width="4" height="4" fill="#C0C0C0"/>
  <rect x="16" y="4" width="1" height="4" fill="#808080"/>
  <rect x="16" y="7" width="4" height="1" fill="#808080"/>
  <!-- Document text lines -->
  <rect x="6" y="9" width="10" height="1" fill="#000000"/>
  <rect x="6" y="11" width="12" height="1" fill="#000000"/>
  <rect x="6" y="13" width="8" height="1" fill="#000000"/>
  <rect x="6" y="15" width="11" height="1" fill="#000000"/>
  <rect x="6" y="17" width="9" height="1" fill="#000000"/>
  <rect x="6" y="19" width="12" height="1" fill="#000000"/>
  <rect x="6" y="21" width="7" height="1" fill="#000000"/>
  <!-- Magnifying glass circle outer -->
  <rect x="17" y="14" width="10" height="10" fill="#000000"/>
  <rect x="19" y="13" width="6" height="1" fill="#000000"/>
  <rect x="17" y="14" width="1" height="2" fill="#000000"/>
  <rect x="26" y="14" width="1" height="2" fill="#000000"/>
  <rect x="17" y="22" width="1" height="2" fill="#000000"/>
  <rect x="26" y="22" width="1" height="2" fill="#000000"/>
  <rect x="19" y="24" width="6" height="1" fill="#000000"/>
  <!-- Glass fill -->
  <rect x="18" y="15" width="8" height="7" fill="#0000FF"/>
  <rect x="19" y="14" width="6" height="1" fill="#0000FF"/>
  <rect x="19" y="22" width="6" height="1" fill="#0000FF"/>
  <rect x="18" y="14" width="1" height="1" fill="#0000FF"/>
  <rect x="25" y="14" width="1" height="1" fill="#0000FF"/>
  <rect x="18" y="22" width="1" height="1" fill="#0000FF"/>
  <rect x="25" y="22" width="1" height="1" fill="#0000FF"/>
  <!-- Glass highlight -->
  <rect x="19" y="15" width="4" height="1" fill="#FFFFFF"/>
  <rect x="18" y="16" width="1" height="3" fill="#FFFFFF"/>
  <!-- Handle -->
  <rect x="25" y="23" width="2" height="2" fill="#808000"/>
  <rect x="27" y="25" width="2" height="2" fill="#808000"/>
  <rect x="28" y="26" width="2" height="2" fill="#808080"/>
  <rect x="29" y="27" width="2" height="2" fill="#808080"/>
  <rect x="30" y="28" width="2" height="2" fill="#000000"/>
</svg>