<svg xmlns="http://www.w3.org/2000/svg" viewBox="0 0 16 16" width="16" height="16" shape-rendering="crispEdges">
  <!-- Red background with border -->
  <rect width="16" height="16" fill="#808080"/>
  <rect x="0" y="0" width="16" height="1" fill="#FFFFFF"/>
  <rect x="0" y="0" width="1" height="16" fill="#FFFFFF"/>
  <rect x="1" y="1" width="14" height="14" fill="#FF0000"/>
  <!-- "F" letter -->
  <rect x="4" y="3" width="8" height="1" fill="#FFFFFF"/>
  <rect x="4" y="4" width="2" height="1" fill="#FFFFFF"/>
  <rect x="4" y="5" width="2" height="1" fill="#FFFFFF"/>
  <rect x="4" y="6" width="7" height="1" fill="#FFFFFF"/>
  <rect x="4" y="7" width="2" height="1" fill="#FFFFFF"/>
  <rect x="4" y="8" width="2" height="1" fill="#FFFFFF"/>
  <rect x="4" y="9" width="2" height="1" fill="#FFFFFF"/>
  <rect x="4" y="10" width="2" height="1" fill="#FFFFFF"/>
  <rect x="4" y="11" width="2" height="1" fill="#FFFFFF"/>
  <!-- Lightning accent -->
  <rect x="9" y="4" width="1" height="1" fill="#FFFF00"/>
  <rect x="8" y="5" width="1" height="1" fill="#FFFF00"/>
  <rect x="7" y="7" width="3" height="1" fill="#FFFF00"/>
  <rect x="8" y="8" width="1" height="1" fill="#FFFF00"/>
  <rect x="7" y="9" width="1" height="1" fill="#FFFF00"/>
</svg>