<svg xmlns="http://www.w3.org/2000/svg" viewBox="0 0 16 16" width="16" height="16" shape-rendering="crispEdges">
  <!-- Globe -->
  <rect x="4" y="1" width="6" height="1" fill="#0000FF"/>
  <rect x="3" y="2" width="8" height="1" fill="#0000FF"/>
  <rect x="2" y="3" width="10" height="1" fill="#0000FF"/>
  <rect x="2" y="4" width="10" height="1" fill="#0000FF"/>
  <rect x="2" y="5" width="10" height="1" fill="#000080"/>
  <rect x="2" y="6" width="10" height="1" fill="#000080"/>
  <rect x="3" y="7" width="8" height="1" fill="#000080"/>
  <rect x="4" y="8" width="6" height="1" fill="#000080"/>
  <!-- Globe lines -->
  <rect x="6" y="1" width="1" height="8" fill="#008080"/>
  <rect x="2" y="4" width="10" height="1" fill="#008080"/>
  <!-- Land -->
  <rect x="3" y="2" width="2" height="2" fill="#00FF00"/>
  <rect x="8" y="3" width="2" height="2" fill="#00FF00"/>
  <rect x="3" y="5" width="3" height="2" fill="#00FF00"/>
  <!-- Highlight -->
  <rect x="4" y="1" width="2" height="1" fill="#FFFFFF"/>
  <rect x="3" y="2" width="1" height="1" fill="#C0C0C0"/>
  <!-- Document overlay -->
  <rect x="8" y="8" width="7" height="7" fill="#FFFFFF"/>
  <rect x="8" y="8" width="7" height="1" fill="#C0C0C0"/>
  <rect x="8" y="8" width="1" height="7" fill="#C0C0C0"/>
  <rect x="14" y="8" width="1" height="7" fill="#808080"/>
  <rect x="8" y="14" width="7" height="1" fill="#808080"/>
  <!-- Doc text -->
  <rect x="10" y="10" width="4" height="1" fill="#0000FF"/>
  <rect x="10" y="12" width="3" height="1" fill="#000000"/>
</svg>