<svg xmlns="http://www.w3.org/2000/svg" viewBox="0 0 16 16" width="16" height="16" shape-rendering="crispEdges">
  <!-- Simplified blue "e" -->
  <rect x="5" y="3" width="6" height="1" fill="#0000FF"/>
  <rect x="4" y="4" width="2" height="1" fill="#0000FF"/>
  <rect x="10" y="4" width="2" height="1" fill="#0000FF"/>
  <rect x="3" y="5" width="2" height="1" fill="#000080"/>
  <rect x="11" y="5" width="2" height="1" fill="#0000FF"/>
  <rect x="3" y="6" width="10" height="1" fill="#0000FF"/>
  <rect x="3" y="7" width="2" height="1" fill="#000080"/>
  <rect x="3" y="8" width="2" height="1" fill="#000080"/>
  <rect x="4" y="9" width="2" height="1" fill="#000080"/>
  <rect x="10" y="9" width="2" height="1" fill="#0000FF"/>
  <rect x="5" y="10" width="6" height="1" fill="#0000FF"/>
  <!-- Golden orbit ring -->
  <rect x="6" y="1" width="2" height="1" fill="#FFFF00"/>
  <rect x="8" y="1" width="2" height="1" fill="#808000"/>
  <rect x="10" y="2" width="2" height="1" fill="#808000"/>
  <rect x="12" y="4" width="2" height="1" fill="#808000"/>
  <rect x="13" y="6" width="1" height="2" fill="#FFFF00"/>
  <rect x="12" y="8" width="2" height="1" fill="#FFFF00"/>
  <rect x="11" y="10" width="2" height="1" fill="#FFFF00"/>
  <rect x="9" y="12" width="2" height="1" fill="#FFFF00"/>
  <rect x="7" y="13" width="2" height="1" fill="#808000"/>
  <rect x="5" y="12" width="2" height="1" fill="#808000"/>
  <rect x="3" y="11" width="2" height="1" fill="#808000"/>
  <rect x="2" y="8" width="1" height="2" fill="#808000"/>
  <rect x="2" y="5" width="1" height="2" fill="#FFFF00"/>
  <rect x="3" y="3" width="2" height="1" fill="#FFFF00"/>
  <rect x="4" y="2" width="2" height="1" fill="#FFFF00"/>
</svg>