<svg xmlns="http://www.w3.org/2000/svg" viewBox="0 0 32 32" width="32" height="32" shape-rendering="crispEdges">
  <!-- Blue "e" letter -->
  <rect x="11" y="6" width="10" height="2" fill="#0000FF"/>
  <rect x="9" y="8" width="3" height="2" fill="#0000FF"/>
  <rect x="20" y="8" width="3" height="2" fill="#0000FF"/>
  <rect x="7" y="10" width="3" height="2" fill="#0000FF"/>
  <rect x="22" y="10" width="3" height="2" fill="#0000FF"/>
  <rect x="7" y="12" width="3" height="2" fill="#000080"/>
  <rect x="22" y="12" width="3" height="2" fill="#0000FF"/>
  <!-- Crossbar -->
  <rect x="7" y="14" width="18" height="2" fill="#0000FF"/>
  <!-- Lower half -->
  <rect x="7" y="16" width="3" height="2" fill="#000080"/>
  <rect x="7" y="18" width="3" height="2" fill="#000080"/>
  <rect x="9" y="20" width="3" height="2" fill="#000080"/>
  <rect x="20" y="20" width="3" height="2" fill="#0000FF"/>
  <rect x="11" y="22" width="10" height="2" fill="#0000FF"/>
  <!-- Highlight on e top-left -->
  <rect x="11" y="6" width="10" height="1" fill="#000080"/>
  <rect x="7" y="10" width="1" height="4" fill="#000080"/>
  <!-- Golden orbit ring - back portion (behind e, top) -->
  <rect x="14" y="2" width="2" height="2" fill="#FFFF00"/>
  <rect x="16" y="2" width="2" height="2" fill="#FFFF00"/>
  <rect x="18" y="3" width="2" height="2" fill="#808000"/>
  <rect x="20" y="4" width="2" height="2" fill="#808000"/>
  <rect x="22" y="6" width="2" height="2" fill="#808000"/>
  <!-- Ring right side -->
  <rect x="24" y="8" width="2" height="2" fill="#808000"/>
  <rect x="26" y="10" width="2" height="2" fill="#808000"/>
  <rect x="26" y="12" width="2" height="2" fill="#808000"/>
  <rect x="26" y="14" width="2" height="2" fill="#FFFF00"/>
  <rect x="26" y="16" width="2" height="2" fill="#FFFF00"/>
  <!-- Ring left side (back, behind e) -->
  <rect x="4" y="14" width="2" height="2" fill="#808000"/>
  <rect x="4" y="12" width="2" height="2" fill="#808000"/>
  <rect x="4" y="10" width="2" height="2" fill="#FFFF00"/>
  <rect x="6" y="8" width="2" height="2" fill="#FFFF00"/>
  <rect x="8" y="5" width="2" height="2" fill="#FFFF00"/>
  <rect x="10" y="3" width="2" height="2" fill="#FFFF00"/>
  <rect x="12" y="2" width="2" height="2" fill="#FFFF00"/>
  <!-- Ring front portion (in front of e, bottom) -->
  <rect x="24" y="18" width="2" height="2" fill="#FFFF00"/>
  <rect x="22" y="20" width="2" height="2" fill="#FFFF00"/>
  <rect x="20" y="22" width="2" height="2" fill="#FFFF00"/>
  <rect x="18" y="24" width="2" height="2" fill="#FFFF00"/>
  <rect x="16" y="25" width="2" height="2" fill="#FFFF00"/>
  <rect x="14" y="26" width="2" height="2" fill="#808000"/>
  <rect x="12" y="26" width="2" height="2" fill="#808000"/>
  <rect x="10" y="25" width="2" height="2" fill="#808000"/>
  <rect x="8" y="24" width="2" height="2" fill="#808000"/>
  <rect x="6" y="22" width="2" height="2" fill="#808000"/>
  <rect x="4" y="20" width="2" height="2" fill="#808000"/>
  <rect x="4" y="18" width="2" height="2" fill="#808000"/>
  <rect x="4" y="16" width="2" height="2" fill="#808000"/>
</svg>