<svg xmlns="http://www.w3.org/2000/svg" width="32" height="32" viewBox="0 0 32 32" shape-rendering="crispEdges">
  <!-- Grid background -->
  <rect x="2" y="2" width="28" height="28" fill="#C0C0C0"/>
  <rect x="2" y="2" width="28" height="1" fill="#FFFFFF"/>
  <rect x="2" y="2" width="1" height="28" fill="#FFFFFF"/>
  <rect x="29" y="2" width="1" height="28" fill="#808080"/>
  <rect x="2" y="29" width="28" height="1" fill="#808080"/>
  <!-- Grid lines -->
  <rect x="2" y="9" width="28" height="1" fill="#808080"/>
  <rect x="2" y="16" width="28" height="1" fill="#808080"/>
  <rect x="2" y="23" width="28" height="1" fill="#808080"/>
  <rect x="9" y="2" width="1" height="28" fill="#808080"/>
  <rect x="16" y="2" width="1" height="28" fill="#808080"/>
  <rect x="23" y="2" width="1" height="28" fill="#808080"/>
  <!-- Mine body center -->
  <rect x="13" y="13" width="6" height="6" fill="#000000"/>
  <rect x="12" y="14" width="1" height="4" fill="#000000"/>
  <rect x="19" y="14" width="1" height="4" fill="#000000"/>
  <rect x="14" y="12" width="4" height="1" fill="#000000"/>
  <rect x="14" y="19" width="4" height="1" fill="#000000"/>
  <!-- Mine spikes -->
  <rect x="15" y="10" width="2" height="2" fill="#000000"/>
  <rect x="15" y="20" width="2" height="2" fill="#000000"/>
  <rect x="10" y="15" width="2" height="2" fill="#000000"/>
  <rect x="20" y="15" width="2" height="2" fill="#000000"/>
  <!-- Mine highlight -->
  <rect x="14" y="14" width="2" height="2" fill="#FFFFFF"/>
  <!-- Red accents -->
  <rect x="11" y="11" width="2" height="2" fill="#FF0000"/>
  <rect x="19" y="19" width="2" height="2" fill="#FF0000"/>
  <rect x="11" y="19" width="2" height="2" fill="#FF0000"/>
  <rect x="19" y="11" width="2" height="2" fill="#FF0000"/>
</svg>