<svg xmlns="http://www.w3.org/2000/svg" width="16" height="16" viewBox="0 0 16 16" shape-rendering="crispEdges">
  <!-- Grid background -->
  <rect x="1" y="1" width="14" height="14" fill="#C0C0C0"/>
  <rect x="1" y="1" width="14" height="1" fill="#FFFFFF"/>
  <rect x="1" y="1" width="1" height="14" fill="#FFFFFF"/>
  <rect x="14" y="1" width="1" height="14" fill="#808080"/>
  <rect x="1" y="14" width="14" height="1" fill="#808080"/>
  <!-- Grid lines -->
  <rect x="1" y="5" width="14" height="1" fill="#808080"/>
  <rect x="1" y="10" width="14" height="1" fill="#808080"/>
  <rect x="5" y="1" width="1" height="14" fill="#808080"/>
  <rect x="10" y="1" width="1" height="14" fill="#808080"/>
  <!-- Mine body -->
  <rect x="7" y="7" width="2" height="2" fill="#000000"/>
  <rect x="6" y="7" width="1" height="2" fill="#000000"/>
  <rect x="9" y="7" width="1" height="2" fill="#000000"/>
  <rect x="7" y="6" width="2" height="1" fill="#000000"/>
  <rect x="7" y="9" width="2" height="1" fill="#000000"/>
  <!-- Red accents -->
  <rect x="6" y="6" width="1" height="1" fill="#FF0000"/>
  <rect x="9" y="9" width="1" height="1" fill="#FF0000"/>
</svg>