<svg xmlns="http://www.w3.org/2000/svg" viewBox="0 0 16 16" width="16" height="16" shape-rendering="crispEdges">
  <!-- Monitor -->
  <rect x="2" y="1" width="12" height="8" fill="#C0C0C0"/>
  <rect x="2" y="1" width="12" height="1" fill="#FFFFFF"/>
  <rect x="2" y="1" width="1" height="8" fill="#FFFFFF"/>
  <rect x="13" y="1" width="1" height="8" fill="#808080"/>
  <rect x="2" y="8" width="12" height="1" fill="#808080"/>
  <!-- Screen -->
  <rect x="4" y="3" width="8" height="5" fill="#000080"/>
  <rect x="4" y="3" width="8" height="1" fill="#808080"/>
  <rect x="4" y="3" width="1" height="5" fill="#808080"/>
  <!-- Stand -->
  <rect x="6" y="9" width="4" height="1" fill="#C0C0C0"/>
  <rect x="5" y="10" width="6" height="1" fill="#808080"/>
  <!-- System unit -->
  <rect x="3" y="12" width="10" height="3" fill="#C0C0C0"/>
  <rect x="3" y="12" width="10" height="1" fill="#FFFFFF"/>
  <rect x="3" y="12" width="1" height="3" fill="#FFFFFF"/>
  <rect x="12" y="12" width="1" height="3" fill="#808080"/>
  <rect x="3" y="14" width="10" height="1" fill="#808080"/>
  <!-- Floppy slot -->
  <rect x="4" y="13" width="3" height="1" fill="#808080"/>
</svg>