<svg xmlns="http://www.w3.org/2000/svg" viewBox="0 0 16 16" width="16" height="16" shape-rendering="crispEdges">
  <!-- Dark blue background -->
  <rect width="16" height="16" fill="#000080"/>
  <rect x="0" y="0" width="16" height="1" fill="#0000FF"/>
  <rect x="0" y="0" width="1" height="16" fill="#0000FF"/>
  <rect x="15" y="0" width="1" height="16" fill="#000000"/>
  <rect x="0" y="15" width="16" height="1" fill="#000000"/>
  <!-- Eye - white -->
  <rect x="4" y="5" width="8" height="1" fill="#C0C0C0"/>
  <rect x="3" y="6" width="10" height="1" fill="#FFFFFF"/>
  <rect x="2" y="7" width="12" height="1" fill="#FFFFFF"/>
  <rect x="2" y="8" width="12" height="1" fill="#FFFFFF"/>
  <rect x="3" y="9" width="10" height="1" fill="#FFFFFF"/>
  <rect x="4" y="10" width="8" height="1" fill="#C0C0C0"/>
  <!-- Iris -->
  <rect x="6" y="6" width="4" height="1" fill="#0000FF"/>
  <rect x="5" y="7" width="6" height="1" fill="#0000FF"/>
  <rect x="5" y="8" width="6" height="1" fill="#0000FF"/>
  <rect x="6" y="9" width="4" height="1" fill="#0000FF"/>
  <!-- Pupil -->
  <rect x="7" y="7" width="2" height="2" fill="#000000"/>
  <!-- Highlight -->
  <rect x="7" y="7" width="1" height="1" fill="#FFFFFF"/>
</svg>