<svg xmlns="http://www.w3.org/2000/svg" width="32" height="32" viewBox="0 0 32 32" shape-rendering="crispEdges">
  <!-- Back window -->
  <rect x="6" y="2" width="22" height="18" fill="#C0C0C0"/>
  <rect x="6" y="2" width="22" height="1" fill="#FFFFFF"/>
  <rect x="6" y="2" width="1" height="18" fill="#FFFFFF"/>
  <rect x="27" y="2" width="1" height="18" fill="#808080"/>
  <rect x="6" y="19" width="22" height="1" fill="#808080"/>
  <!-- Back window title bar -->
  <rect x="7" y="3" width="20" height="3" fill="#000080"/>
  <!-- Middle window -->
  <rect x="3" y="6" width="22" height="18" fill="#C0C0C0"/>
  <rect x="3" y="6" width="22" height="1" fill="#FFFFFF"/>
  <rect x="3" y="6" width="1" height="18" fill="#FFFFFF"/>
  <rect x="24" y="6" width="1" height="18" fill="#808080"/>
  <rect x="3" y="23" width="22" height="1" fill="#808080"/>
  <!-- Middle window title bar -->
  <rect x="4" y="7" width="20" height="3" fill="#000080"/>
  <!-- Front window -->
  <rect x="1" y="10" width="22" height="18" fill="#C0C0C0"/>
  <rect x="1" y="10" width="22" height="1" fill="#FFFFFF"/>
  <rect x="1" y="10" width="1" height="18" fill="#FFFFFF"/>
  <rect x="22" y="10" width="1" height="18" fill="#808080"/>
  <rect x="1" y="27" width="22" height="1" fill="#808080"/>
  <!-- Front window title bar -->
  <rect x="2" y="11" width="20" height="3" fill="#000080"/>
  <!-- Front window content area -->
  <rect x="2" y="14" width="20" height="13" fill="#FFFFFF"/>
  <!-- Arrow overlay -->
  <rect x="24" y="20" width="2" height="8" fill="#000000"/>
  <rect x="22" y="24" width="2" height="1" fill="#000000"/>
  <rect x="26" y="24" width="2" height="1" fill="#000000"/>
  <rect x="23" y="25" width="1" height="1" fill="#000000"/>
  <rect x="27" y="25" width="1" height="1" fill="#000000"/>
  <rect x="24" y="26" width="1" height="1" fill="#000000"/>
  <rect x="26" y="26" width="1" height="1" fill="#000000"/>
</svg>