<svg xmlns="http://www.w3.org/2000/svg" width="32" height="32" viewBox="0 0 32 32" shape-rendering="crispEdges">
  <!-- Blue cube - top face -->
  <rect x="8" y="2" width="16" height="8" fill="#0000FF"/>
  <rect x="8" y="2" width="16" height="1" fill="#FFFFFF"/>
  <rect x="8" y="2" width="1" height="8" fill="#FFFFFF"/>
  <!-- Blue cube - front face -->
  <rect x="8" y="10" width="16" height="10" fill="#000080"/>
  <rect x="23" y="2" width="1" height="18" fill="#000000"/>
  <rect x="8" y="19" width="16" height="1" fill="#000000"/>
  <!-- Cube grid lines -->
  <rect x="13" y="2" width="1" height="18" fill="#000080"/>
  <rect x="18" y="2" width="1" height="18" fill="#000080"/>
  <rect x="8" y="6" width="16" height="1" fill="#000080"/>
  <rect x="8" y="14" width="16" height="1" fill="#000080"/>
  <!-- Document page -->
  <rect x="3" y="16" width="14" height="14" fill="#FFFFFF"/>
  <rect x="3" y="16" width="14" height="1" fill="#FFFFFF"/>
  <rect x="3" y="16" width="1" height="14" fill="#FFFFFF"/>
  <rect x="16" y="16" width="1" height="14" fill="#808080"/>
  <rect x="3" y="29" width="14" height="1" fill="#808080"/>
  <!-- Document lines -->
  <rect x="5" y="18" width="10" height="1" fill="#000000"/>
  <rect x="5" y="20" width="8" height="1" fill="#000000"/>
  <rect x="5" y="22" width="10" height="1" fill="#000000"/>
  <rect x="5" y="24" width="6" height="1" fill="#000000"/>
  <rect x="5" y="26" width="9" height="1" fill="#000000"/>
  <!-- Key icon -->
  <rect x="20" y="22" width="4" height="4" fill="#FFFF00"/>
  <rect x="21" y="23" width="2" height="2" fill="#808000"/>
  <rect x="24" y="24" width="5" height="1" fill="#FFFF00"/>
  <rect x="28" y="22" width="1" height="2" fill="#FFFF00"/>
  <rect x="26" y="22" width="1" height="2" fill="#FFFF00"/>
</svg>