<svg xmlns="http://www.w3.org/2000/svg" viewBox="0 0 32 32" width="32" height="32" shape-rendering="crispEdges">
  <!-- Outer circle (power symbol) -->
  <rect x="10" y="3" width="12" height="2" fill="#FF0000"/>
  <rect x="7" y="5" width="3" height="2" fill="#FF0000"/>
  <rect x="22" y="5" width="3" height="2" fill="#FF0000"/>
  <rect x="5" y="7" width="3" height="3" fill="#FF0000"/>
  <rect x="24" y="7" width="3" height="3" fill="#FF0000"/>
  <rect x="4" y="10" width="2" height="6" fill="#FF0000"/>
  <rect x="26" y="10" width="2" height="6" fill="#FF0000"/>
  <rect x="4" y="16" width="2" height="4" fill="#FF0000"/>
  <rect x="26" y="16" width="2" height="4" fill="#FF0000"/>
  <rect x="5" y="20" width="3" height="3" fill="#FF0000"/>
  <rect x="24" y="20" width="3" height="3" fill="#FF0000"/>
  <rect x="7" y="23" width="3" height="2" fill="#FF0000"/>
  <rect x="22" y="23" width="3" height="2" fill="#FF0000"/>
  <rect x="10" y="25" width="12" height="2" fill="#FF0000"/>
  <!-- Inner fill (dark) -->
  <rect x="8" y="7" width="16" height="18" fill="#000000"/>
  <rect x="6" y="10" width="20" height="12" fill="#000000"/>
  <rect x="7" y="8" width="18" height="16" fill="#000000"/>
  <rect x="10" y="5" width="12" height="20" fill="#000000"/>
  <!-- Vertical line (power stem) -->
  <rect x="15" y="3" width="2" height="12" fill="#FFFFFF"/>
  <!-- Highlight on circle -->
  <rect x="10" y="3" width="5" height="1" fill="#FFFFFF"/>
  <rect x="7" y="5" width="2" height="1" fill="#FFFFFF"/>
  <rect x="5" y="7" width="2" height="1" fill="#FFFFFF"/>
  <rect x="4" y="10" width="1" height="4" fill="#FFFFFF"/>
  <!-- Shadow on circle -->
  <rect x="17" y="26" width="5" height="1" fill="#808080"/>
  <rect x="23" y="24" width="2" height="1" fill="#808080"/>
  <rect x="25" y="21" width="2" height="2" fill="#808080"/>
  <rect x="27" y="14" width="1" height="4" fill="#808080"/>
  <!-- Red glow inner ring -->
  <rect x="8" y="9" width="2" height="1" fill="#FF0000"/>
  <rect x="22" y="9" width="2" height="1" fill="#FF0000"/>
  <rect x="6" y="12" width="2" height="1" fill="#FF0000"/>
  <rect x="24" y="12" width="2" height="1" fill="#FF0000"/>
  <rect x="6" y="17" width="2" height="1" fill="#FF0000"/>
  <rect x="24" y="17" width="2" height="1" fill="#FF0000"/>
  <rect x="8" y="21" width="2" height="1" fill="#FF0000"/>
  <rect x="22" y="21" width="2" height="1" fill="#FF0000"/>
  <rect x="12" y="23" width="8" height="1" fill="#FF0000"/>
</svg>