<svg xmlns="http://www.w3.org/2000/svg" viewBox="0 0 16 16" width="16" height="16" shape-rendering="crispEdges">
  <!-- Outer circle -->
  <rect x="5" y="1" width="6" height="1" fill="#FF0000"/>
  <rect x="3" y="2" width="2" height="2" fill="#FF0000"/>
  <rect x="11" y="2" width="2" height="2" fill="#FF0000"/>
  <rect x="2" y="4" width="1" height="4" fill="#FF0000"/>
  <rect x="13" y="4" width="1" height="4" fill="#FF0000"/>
  <rect x="2" y="8" width="1" height="3" fill="#FF0000"/>
  <rect x="13" y="8" width="1" height="3" fill="#FF0000"/>
  <rect x="3" y="11" width="2" height="2" fill="#FF0000"/>
  <rect x="11" y="11" width="2" height="2" fill="#FF0000"/>
  <rect x="5" y="13" width="6" height="1" fill="#FF0000"/>
  <!-- Inner black -->
  <rect x="4" y="4" width="8" height="8" fill="#000000"/>
  <rect x="3" y="5" width="10" height="6" fill="#000000"/>
  <rect x="5" y="2" width="6" height="10" fill="#000000"/>
  <!-- Power stem -->
  <rect x="7" y="1" width="2" height="6" fill="#FFFFFF"/>
  <!-- Highlight -->
  <rect x="5" y="1" width="2" height="1" fill="#FFFFFF"/>
  <rect x="3" y="2" width="1" height="1" fill="#FFFFFF"/>
  <rect x="2" y="4" width="1" height="2" fill="#FFFFFF"/>
  <!-- Inner red ring hints -->
  <rect x="4" y="5" width="1" height="1" fill="#FF0000"/>
  <rect x="11" y="5" width="1" height="1" fill="#FF0000"/>
  <rect x="4" y="10" width="1" height="1" fill="#FF0000"/>
  <rect x="11" y="10" width="1" height="1" fill="#FF0000"/>
  <rect x="6" y="12" width="4" height="1" fill="#FF0000"/>
</svg>