<svg xmlns="http://www.w3.org/2000/svg" width="16" height="16" viewBox="0 0 16 16" shape-rendering="crispEdges">
  <!-- Green background -->
  <rect x="0" y="0" width="16" height="16" fill="#008080"/>
  <!-- Card body -->
  <rect x="2" y="1" width="12" height="14" fill="#FFFFFF"/>
  <rect x="13" y="1" width="1" height="14" fill="#808080"/>
  <rect x="2" y="14" width="12" height="1" fill="#808080"/>
  <!-- Spade symbol -->
  <rect x="7" y="4" width="2" height="1" fill="#000000"/>
  <rect x="6" y="5" width="4" height="1" fill="#000000"/>
  <rect x="5" y="6" width="6" height="1" fill="#000000"/>
  <rect x="5" y="7" width="6" height="1" fill="#000000"/>
  <rect x="6" y="8" width="4" height="1" fill="#000000"/>
  <rect x="7" y="9" width="2" height="1" fill="#000000"/>
  <rect x="7" y="10" width="2" height="1" fill="#000000"/>
  <rect x="6" y="11" width="4" height="1" fill="#000000"/>
  <!-- A top-left -->
  <rect x="3" y="2" width="2" height="1" fill="#000000"/>
  <rect x="3" y="3" width="1" height="1" fill="#000000"/>
  <rect x="5" y="3" width="1" height="1" fill="#000000"/>
</svg>