<svg xmlns="http://www.w3.org/2000/svg" width="32" height="32" viewBox="0 0 32 32" shape-rendering="crispEdges">
  <!-- Window frame -->
  <rect x="3" y="3" width="26" height="26" fill="#C0C0C0"/>
  <rect x="3" y="3" width="26" height="1" fill="#FFFFFF"/>
  <rect x="3" y="3" width="1" height="26" fill="#FFFFFF"/>
  <rect x="28" y="3" width="1" height="26" fill="#808080"/>
  <rect x="3" y="28" width="26" height="1" fill="#808080"/>
  <!-- Title bar -->
  <rect x="4" y="4" width="24" height="3" fill="#000080"/>
  <!-- Graph area background -->
  <rect x="5" y="9" width="22" height="17" fill="#000000"/>
  <!-- Grid lines -->
  <rect x="5" y="13" width="22" height="1" fill="#008080"/>
  <rect x="5" y="17" width="22" height="1" fill="#008080"/>
  <rect x="5" y="21" width="22" height="1" fill="#008080"/>
  <rect x="10" y="9" width="1" height="17" fill="#008080"/>
  <rect x="16" y="9" width="1" height="17" fill="#008080"/>
  <rect x="22" y="9" width="1" height="17" fill="#008080"/>
  <!-- Bar chart bars (CPU usage style) -->
  <rect x="6" y="18" width="3" height="8" fill="#00FF00"/>
  <rect x="11" y="14" width="3" height="12" fill="#00FF00"/>
  <rect x="17" y="20" width="3" height="6" fill="#00FF00"/>
  <rect x="23" y="11" width="3" height="15" fill="#00FF00"/>
  <!-- Bar highlights -->
  <rect x="6" y="18" width="1" height="1" fill="#FFFFFF"/>
  <rect x="11" y="14" width="1" height="1" fill="#FFFFFF"/>
  <rect x="17" y="20" width="1" height="1" fill="#FFFFFF"/>
  <rect x="23" y="11" width="1" height="1" fill="#FFFFFF"/>
</svg>