<svg xmlns="http://www.w3.org/2000/svg" viewBox="0 0 16 16" width="16" height="16" shape-rendering="crispEdges">
  <!-- Dark background -->
  <rect width="16" height="16" fill="#000000"/>
  <rect x="1" y="1" width="14" height="14" fill="#808080"/>
  <rect x="2" y="2" width="12" height="12" fill="#000000"/>
  <!-- Lightning bolt -->
  <rect x="8" y="2" width="3" height="1" fill="#FFFF00"/>
  <rect x="7" y="3" width="3" height="1" fill="#FFFF00"/>
  <rect x="6" y="4" width="3" height="1" fill="#FFFF00"/>
  <rect x="5" y="5" width="7" height="1" fill="#FFFF00"/>
  <rect x="6" y="6" width="6" height="1" fill="#FFFF00"/>
  <rect x="8" y="7" width="3" height="1" fill="#808000"/>
  <rect x="7" y="8" width="3" height="1" fill="#808000"/>
  <rect x="6" y="9" width="3" height="1" fill="#808000"/>
  <rect x="5" y="10" width="3" height="1" fill="#808000"/>
  <rect x="4" y="11" width="3" height="1" fill="#808000"/>
  <rect x="4" y="12" width="2" height="1" fill="#808000"/>
  <!-- Highlight -->
  <rect x="8" y="2" width="3" height="1" fill="#FFFFFF"/>
</svg>