<svg xmlns="http://www.w3.org/2000/svg" viewBox="0 0 16 16" width="16" height="16" shape-rendering="crispEdges">
  <!-- Document page -->
  <rect x="2" y="1" width="12" height="14" fill="#FFFFFF"/>
  <rect x="2" y="1" width="12" height="1" fill="#C0C0C0"/>
  <rect x="2" y="1" width="1" height="14" fill="#C0C0C0"/>
  <rect x="13" y="1" width="1" height="14" fill="#808080"/>
  <rect x="2" y="14" width="12" height="1" fill="#808080"/>
  <!-- Dog ear -->
  <rect x="11" y="1" width="2" height="1" fill="#C0C0C0"/>
  <rect x="12" y="2" width="1" height="1" fill="#C0C0C0"/>
  <!-- Text lines -->
  <rect x="4" y="5" width="8" height="1" fill="#C0C0C0"/>
  <rect x="4" y="8" width="6" height="1" fill="#C0C0C0"/>
  <rect x="4" y="11" width="8" height="1" fill="#C0C0C0"/>
  <!-- Blue "W" -->
  <rect x="3" y="3" width="1" height="7" fill="#000080"/>
  <rect x="4" y="8" width="1" height="2" fill="#000080"/>
  <rect x="5" y="7" width="1" height="2" fill="#000080"/>
  <rect x="6" y="6" width="1" height="2" fill="#000080"/>
  <rect x="7" y="7" width="1" height="2" fill="#000080"/>
  <rect x="8" y="8" width="1" height="2" fill="#000080"/>
  <rect x="9" y="3" width="1" height="7" fill="#000080"/>
  <!-- Highlight -->
  <rect x="3" y="3" width="1" height="1" fill="#0000FF"/>
  <rect x="9" y="3" width="1" height="1" fill="#0000FF"/>
</svg>